<svg width="45" height="45" viewBox="0 0 45 45" fill="none" xmlns="http://www.w3.org/2000/svg">
<path d="M18.438 30.438L17.379 31.5L19.5 33.621L20.562 32.562L18.438 30.438ZM28.5 22.5L29.562 23.562L30.621 22.5L29.562 21.438L28.5 22.5ZM20.562 12.438L19.5 11.379L17.379 13.5L18.438 14.562L20.562 12.438ZM20.562 32.562L29.562 23.562L27.438 21.438L18.438 30.438L20.562 32.562ZM29.562 21.438L20.562 12.438L18.438 14.562L27.438 23.562L29.562 21.438ZM22.5 3C27.6717 3 32.6316 5.05446 36.2886 8.71142C39.9455 12.3684 42 17.3283 42 22.5H45C45 16.5326 42.6295 10.8097 38.4099 6.5901C34.1903 2.37053 28.4674 0 22.5 0V3ZM3 22.5C3 17.3283 5.05446 12.3684 8.71142 8.71142C12.3684 5.05446 17.3283 3 22.5 3V0C16.5326 0 10.8097 2.37053 6.5901 6.5901C2.37053 10.8097 0 16.5326 0 22.5H3ZM22.5 42C19.9392 42 17.4035 41.4956 15.0377 40.5156C12.6718 39.5357 10.5222 38.0993 8.71142 36.2886C6.90068 34.4778 5.46432 32.3282 4.48435 29.9623C3.50439 27.5965 3 25.0608 3 22.5H0C0 28.4674 2.37053 34.1903 6.5901 38.4099C10.8097 42.6295 16.5326 45 22.5 45V42ZM22.5 45C28.4674 45 34.1903 42.6295 38.4099 38.4099C42.6295 34.1903 45 28.4674 45 22.5H42C42 25.0608 41.4956 27.5965 40.5157 29.9623C39.5357 32.3282 38.0993 34.4778 36.2886 36.2886C34.4778 38.0993 32.3282 39.5357 29.9623 40.5156C27.5965 41.4956 25.0608 42 22.5 42V45Z" fill="#6299DC"/>
</svg>
