<svg width="45" height="46" viewBox="0 0 45 46" fill="none" xmlns="http://www.w3.org/2000/svg">
<path d="M26.562 15.3127L27.621 14.2507L25.5 12.1297L24.438 13.1887L26.562 15.3127ZM16.5 23.2507L15.438 22.1887L14.379 23.2507L15.438 24.3127L16.5 23.2507ZM24.438 33.3127L25.5 34.3717L27.621 32.2507L26.562 31.1887L24.438 33.3127ZM24.438 13.1887L15.438 22.1887L17.562 24.3127L26.562 15.3127L24.438 13.1887ZM15.438 24.3127L24.438 33.3127L26.562 31.1887L17.562 22.1887L15.438 24.3127ZM22.5 42.7507C17.3283 42.7507 12.3684 40.6962 8.71142 37.0393C5.05446 33.3823 3 28.4224 3 23.2507H0C0 29.2181 2.37053 34.941 6.5901 39.1606C10.8097 43.3802 16.5326 45.7507 22.5 45.7507V42.7507ZM42 23.2507C42 28.4224 39.9455 33.3823 36.2886 37.0393C32.6316 40.6962 27.6717 42.7507 22.5 42.7507V45.7507C28.4674 45.7507 34.1903 43.3802 38.4099 39.1606C42.6295 34.941 45 29.2181 45 23.2507H42ZM22.5 3.75069C25.0608 3.75069 27.5965 4.25507 29.9623 5.23504C32.3282 6.215 34.4778 7.65136 36.2886 9.4621C38.0993 11.2728 39.5357 13.4225 40.5156 15.7884C41.4956 18.1542 42 20.6899 42 23.2507H45C45 17.2833 42.6295 11.5604 38.4099 7.34078C34.1903 3.12122 28.4674 0.750687 22.5 0.750687V3.75069ZM22.5 0.750687C16.5326 0.750687 10.8097 3.12122 6.5901 7.34078C2.37053 11.5604 0 17.2833 0 23.2507H3C3 20.6899 3.50438 18.1542 4.48435 15.7884C5.46432 13.4225 6.90068 11.2728 8.71142 9.4621C10.5222 7.65136 12.6718 6.215 15.0377 5.23504C17.4035 4.25507 19.9392 3.75069 22.5 3.75069V0.750687Z" fill="#ADB3B9"/>
</svg>
